<svg height="40" viewBox="0 0 200 40" width="200" xmlns="http://www.w3.org/2000/svg"><path d="m173.636 10.932h3.998v13.094h5.107v-13.094h3.996v13.094h3.898c.705 0 1.275-.57 1.275-1.273v-11.82h3.995v11.82c0 2.91-2.36 5.27-5.27 5.27h-17v-17.09z"/><path d="m150.726 16.204c0-2.912 2.36-5.27 5.273-5.27h9.166c2.912 0 5.27 2.358 5.27 5.27v11.818h-3.994v-5.322h-11.72v5.323h-3.996v-11.82zm15.715 0c0-.705-.57-1.272-1.274-1.274h-9.17c-.703.002-1.27.57-1.273 1.274v2.5h11.72v-2.5z"/><path d="m148.022 17.43c-.002 1.957-1.066 3.664-2.65 4.574l2.68 6.02h-4.365l-2.367-5.324h-7.64v5.323h-3.994v-17.09h13.065c2.913 0 5.272 2.36 5.272 5.27v1.227zm-5.27 1.274c.702-.002 1.274-.57 1.276-1.275v-1.227c-.002-.704-.572-1.272-1.277-1.273h-9.07v3.774h9.07z"/><path d="m119.22 17.43c0 1.957-1.066 3.664-2.65 4.574l2.682 6.02h-4.367l-2.37-5.324h-7.635v5.323h-3.995v-17.09h13.064c2.91 0 5.27 2.36 5.27 5.27v1.227zm-5.272 1.274c.703-.002 1.274-.57 1.276-1.275v-1.227c-.002-.704-.572-1.272-1.276-1.273h-9.07v3.774h9.07z"/><path d="m78.067 16.204c0-2.912 2.36-5.27 5.27-5.27h9.17c2.91 0 5.27 2.358 5.27 5.27v11.818h-3.995v-5.322h-11.72v5.323h-3.995v-11.82zm15.715 0c-.002-.705-.572-1.272-1.276-1.274h-9.168c-.705.002-1.273.57-1.276 1.274v2.5h11.72z"/><path d="m76.82 10.932v3.995h-6.618l-.002 13.096h-4.07v-13.096h-6.62v-3.995z"/><path d="m43.39 16.204c.002.705.57 1.273 1.275 1.274h8.297c2.91 0 5.27 2.362 5.27 5.273 0 2.91-2.36 5.272-5.27 5.272h-12.94v-3.998h12.94c.704 0 1.273-.57 1.275-1.273 0-.705-.57-1.274-1.275-1.276h-8.297c-2.91 0-5.27-2.36-5.27-5.27 0-2.913 2.358-5.272 5.27-5.272h12.415v3.997h-12.415c-.705 0-1.274.57-1.276 1.274z"/><path d="m29.41 17.48h6.352v3.995h-6.352z"/><path d="m11.27 28.023c-2.91 0-5.27-2.36-5.27-5.272v-6.547c0-2.91 2.36-5.27 5.27-5.27h14.223v3.996h-14.223c-.704 0-1.273.57-1.275 1.273v6.548c.002.706.57 1.275 1.276 1.275h9.329c.705 0 1.273-.57 1.275-1.274v-1.275h-6.045v-3.997h10.04v5.27c0 2.912-2.36 5.272-5.27 5.273z"/></svg>